<mxfile host="app.diagrams.net" modified="2021-08-27T06:17:54.348Z" agent="5.0 (Macintosh; Intel Mac OS X 10_15_7) AppleWebKit/537.36 (KHTML, like Gecko) Chrome/92.0.4515.115 Safari/537.36" etag="JYAASUKwlyUlgH7_7Ige" version="15.0.2" type="github">
  <diagram id="prtHgNgQTEPvFCAcTncT" name="Page-1">
    <mxGraphModel dx="1298" dy="686" grid="1" gridSize="10" guides="1" tooltips="1" connect="1" arrows="1" fold="1" page="1" pageScale="1" pageWidth="827" pageHeight="1169" math="0" shadow="0">
      <root>
        <mxCell id="0" />
        <mxCell id="1" parent="0" />
        <mxCell id="dNxyNK7c78bLwvsdeMH5-11" value="&lt;font style=&quot;font-size: 16px&quot;&gt;Issue Structure&lt;/font&gt;" style="swimlane;html=1;startSize=20;horizontal=1;containerType=tree;glass=0;" parent="1" vertex="1">
          <mxGeometry x="20" y="40" width="940" height="770" as="geometry" />
        </mxCell>
        <UserObject label="&lt;div style=&quot;text-align: center&quot;&gt;&lt;span&gt;%IssueType%&lt;/span&gt;&lt;/div&gt;&lt;i style=&quot;color: gray&quot;&gt;%ActionName%&lt;br&gt;&lt;/i&gt;&lt;i style=&quot;color: gray&quot;&gt;%Option%&lt;br&gt;&lt;/i&gt;" placeholders="1" IssueType="Sub-Task" ActionName="상세설계서(테이블정의서)" Option="선택" id="ul-tW43uK6jAfi8oGgl1-19">
          <mxCell style="label;image=data:image/svg+xml,PHN2ZyB4bWxucz0iaHR0cDovL3d3dy53My5vcmcvMjAwMC9zdmciIHdpZHRoPSIxNiIgaGVpZ2h0PSIxNiIgdmlld0JveD0iMCAwIDE2IDE2Ij48ZyBmaWxsPSJub25lIiBmaWxsLXJ1bGU9ImV2ZW5vZGQiPjxwYXRoIGQ9Ik0wIDEuNzc3QzAgLjc5Ni43OTYgMCAxLjc3NyAwaDEyLjQ0NkMxNS4yMDQgMCAxNiAuNzk2IDE2IDEuNzc3djEyLjQ0NmMwIC45ODEtLjc5NiAxLjc3Ny0xLjc3NyAxLjc3N0gxLjc3N0ExLjc3OCAxLjc3OCAwIDAgMSAwIDE0LjIyM1YxLjc3N3oiIGZpbGw9IiMyNjg0RkYiLz48cGF0aCBkPSJNNy45MzMgN2g0LjEzNGMuNTE1IDAgLjkzMy40MTguOTMzLjkzM3Y0LjEzNGEuOTMzLjkzMyAwIDAgMS0uOTMzLjkzM0g3LjkzM0EuOTMzLjkzMyAwIDAgMSA3IDEyLjA2N1Y3LjkzM0M3IDcuNDE4IDcuNDE4IDcgNy45MzMgN3oiIGZpbGw9IiNGRkYiLz48cGF0aCBkPSJNNC41IDQuNXYzaDN2LTNoLTN6TTMuOTMzIDNoNC4xMzRjLjUxNSAwIC45MzMuNDE4LjkzMy45MzN2NC4xMzRBLjkzMy45MzMgMCAwIDEgOC4wNjcgOUgzLjkzM0EuOTMzLjkzMyAwIDAgMSAzIDguMDY3VjMuOTMzQzMgMy40MTggMy40MTggMyAzLjkzMyAzeiIgZmlsbD0iI0ZGRiIgZmlsbC1ydWxlPSJub256ZXJvIi8+PC9nPjwvc3ZnPg==;whiteSpace=wrap;html=1;rounded=0;glass=0;treeMoving=1;treeFolding=1;direction=east;fillColor=#fff2cc;strokeColor=#d6b656;" parent="dNxyNK7c78bLwvsdeMH5-11" vertex="1">
            <mxGeometry x="433" y="330" width="180" height="70" as="geometry" />
          </mxCell>
        </UserObject>
        <UserObject label="&lt;div style=&quot;text-align: center&quot;&gt;&lt;span&gt;%IssueType%&lt;/span&gt;&lt;/div&gt;&lt;i style=&quot;color: gray&quot;&gt;%ActionName%&lt;br&gt;&lt;/i&gt;&lt;i style=&quot;color: gray&quot;&gt;%Option%&lt;br&gt;&lt;/i&gt;" placeholders="1" IssueType="Sub-Task" ActionName="상세설계서(Flow Chart)" Option="선택" id="ul-tW43uK6jAfi8oGgl1-21">
          <mxCell style="label;image=data:image/svg+xml,PHN2ZyB4bWxucz0iaHR0cDovL3d3dy53My5vcmcvMjAwMC9zdmciIHdpZHRoPSIxNiIgaGVpZ2h0PSIxNiIgdmlld0JveD0iMCAwIDE2IDE2Ij48ZyBmaWxsPSJub25lIiBmaWxsLXJ1bGU9ImV2ZW5vZGQiPjxwYXRoIGQ9Ik0wIDEuNzc3QzAgLjc5Ni43OTYgMCAxLjc3NyAwaDEyLjQ0NkMxNS4yMDQgMCAxNiAuNzk2IDE2IDEuNzc3djEyLjQ0NmMwIC45ODEtLjc5NiAxLjc3Ny0xLjc3NyAxLjc3N0gxLjc3N0ExLjc3OCAxLjc3OCAwIDAgMSAwIDE0LjIyM1YxLjc3N3oiIGZpbGw9IiMyNjg0RkYiLz48cGF0aCBkPSJNNy45MzMgN2g0LjEzNGMuNTE1IDAgLjkzMy40MTguOTMzLjkzM3Y0LjEzNGEuOTMzLjkzMyAwIDAgMS0uOTMzLjkzM0g3LjkzM0EuOTMzLjkzMyAwIDAgMSA3IDEyLjA2N1Y3LjkzM0M3IDcuNDE4IDcuNDE4IDcgNy45MzMgN3oiIGZpbGw9IiNGRkYiLz48cGF0aCBkPSJNNC41IDQuNXYzaDN2LTNoLTN6TTMuOTMzIDNoNC4xMzRjLjUxNSAwIC45MzMuNDE4LjkzMy45MzN2NC4xMzRBLjkzMy45MzMgMCAwIDEgOC4wNjcgOUgzLjkzM0EuOTMzLjkzMyAwIDAgMSAzIDguMDY3VjMuOTMzQzMgMy40MTggMy40MTggMyAzLjkzMyAzeiIgZmlsbD0iI0ZGRiIgZmlsbC1ydWxlPSJub256ZXJvIi8+PC9nPjwvc3ZnPg==;whiteSpace=wrap;html=1;rounded=0;glass=0;treeMoving=1;treeFolding=1;direction=east;fillColor=#fff2cc;strokeColor=#d6b656;" parent="dNxyNK7c78bLwvsdeMH5-11" vertex="1">
            <mxGeometry x="423" y="320" width="180" height="70" as="geometry" />
          </mxCell>
        </UserObject>
        <UserObject label="&lt;div style=&quot;text-align: center&quot;&gt;&lt;span&gt;%IssueType%&lt;/span&gt;&lt;/div&gt;&lt;i style=&quot;color: gray&quot;&gt;%ActionName%&lt;br&gt;&lt;/i&gt;&lt;i style=&quot;color: gray&quot;&gt;%Option%&lt;br&gt;&lt;/i&gt;" placeholders="1" IssueType="Sub-Task" ActionName="사용자메뉴얼" Option="CMS필수" id="ul-tW43uK6jAfi8oGgl1-22">
          <mxCell style="label;image=data:image/svg+xml,PHN2ZyB4bWxucz0iaHR0cDovL3d3dy53My5vcmcvMjAwMC9zdmciIHdpZHRoPSIxNiIgaGVpZ2h0PSIxNiIgdmlld0JveD0iMCAwIDE2IDE2Ij48ZyBmaWxsPSJub25lIiBmaWxsLXJ1bGU9ImV2ZW5vZGQiPjxwYXRoIGQ9Ik0wIDEuNzc3QzAgLjc5Ni43OTYgMCAxLjc3NyAwaDEyLjQ0NkMxNS4yMDQgMCAxNiAuNzk2IDE2IDEuNzc3djEyLjQ0NmMwIC45ODEtLjc5NiAxLjc3Ny0xLjc3NyAxLjc3N0gxLjc3N0ExLjc3OCAxLjc3OCAwIDAgMSAwIDE0LjIyM1YxLjc3N3oiIGZpbGw9IiMyNjg0RkYiLz48cGF0aCBkPSJNNy45MzMgN2g0LjEzNGMuNTE1IDAgLjkzMy40MTguOTMzLjkzM3Y0LjEzNGEuOTMzLjkzMyAwIDAgMS0uOTMzLjkzM0g3LjkzM0EuOTMzLjkzMyAwIDAgMSA3IDEyLjA2N1Y3LjkzM0M3IDcuNDE4IDcuNDE4IDcgNy45MzMgN3oiIGZpbGw9IiNGRkYiLz48cGF0aCBkPSJNNC41IDQuNXYzaDN2LTNoLTN6TTMuOTMzIDNoNC4xMzRjLjUxNSAwIC45MzMuNDE4LjkzMy45MzN2NC4xMzRBLjkzMy45MzMgMCAwIDEgOC4wNjcgOUgzLjkzM0EuOTMzLjkzMyAwIDAgMSAzIDguMDY3VjMuOTMzQzMgMy40MTggMy40MTggMyAzLjkzMyAzeiIgZmlsbD0iI0ZGRiIgZmlsbC1ydWxlPSJub256ZXJvIi8+PC9nPjwvc3ZnPg==;whiteSpace=wrap;html=1;rounded=0;glass=0;treeMoving=1;treeFolding=1;direction=east;fillColor=#fff2cc;strokeColor=#d6b656;" parent="dNxyNK7c78bLwvsdeMH5-11" vertex="1">
            <mxGeometry x="413" y="310" width="180" height="70" as="geometry" />
          </mxCell>
        </UserObject>
        <UserObject label="&lt;div style=&quot;text-align: center&quot;&gt;&lt;span&gt;%IssueType%&lt;/span&gt;&lt;/div&gt;&lt;i style=&quot;color: gray&quot;&gt;%ActionName%&lt;br&gt;&lt;/i&gt;&lt;i style=&quot;color: gray&quot;&gt;%Option%&lt;br&gt;&lt;/i&gt;" placeholders="1" IssueType="Sub-Task" ActionName="테스트시나리오" Option="필수" id="ul-tW43uK6jAfi8oGgl1-20">
          <mxCell style="label;image=data:image/svg+xml,PHN2ZyB4bWxucz0iaHR0cDovL3d3dy53My5vcmcvMjAwMC9zdmciIHdpZHRoPSIxNiIgaGVpZ2h0PSIxNiIgdmlld0JveD0iMCAwIDE2IDE2Ij48ZyBmaWxsPSJub25lIiBmaWxsLXJ1bGU9ImV2ZW5vZGQiPjxwYXRoIGQ9Ik0wIDEuNzc3QzAgLjc5Ni43OTYgMCAxLjc3NyAwaDEyLjQ0NkMxNS4yMDQgMCAxNiAuNzk2IDE2IDEuNzc3djEyLjQ0NmMwIC45ODEtLjc5NiAxLjc3Ny0xLjc3NyAxLjc3N0gxLjc3N0ExLjc3OCAxLjc3OCAwIDAgMSAwIDE0LjIyM1YxLjc3N3oiIGZpbGw9IiMyNjg0RkYiLz48cGF0aCBkPSJNNy45MzMgN2g0LjEzNGMuNTE1IDAgLjkzMy40MTguOTMzLjkzM3Y0LjEzNGEuOTMzLjkzMyAwIDAgMS0uOTMzLjkzM0g3LjkzM0EuOTMzLjkzMyAwIDAgMSA3IDEyLjA2N1Y3LjkzM0M3IDcuNDE4IDcuNDE4IDcgNy45MzMgN3oiIGZpbGw9IiNGRkYiLz48cGF0aCBkPSJNNC41IDQuNXYzaDN2LTNoLTN6TTMuOTMzIDNoNC4xMzRjLjUxNSAwIC45MzMuNDE4LjkzMy45MzN2NC4xMzRBLjkzMy45MzMgMCAwIDEgOC4wNjcgOUgzLjkzM0EuOTMzLjkzMyAwIDAgMSAzIDguMDY3VjMuOTMzQzMgMy40MTggMy40MTggMyAzLjkzMyAzeiIgZmlsbD0iI0ZGRiIgZmlsbC1ydWxlPSJub256ZXJvIi8+PC9nPjwvc3ZnPg==;whiteSpace=wrap;html=1;rounded=0;glass=0;treeMoving=1;treeFolding=1;direction=east;fillColor=#fff2cc;strokeColor=#d6b656;" parent="dNxyNK7c78bLwvsdeMH5-11" vertex="1">
            <mxGeometry x="403" y="300" width="180" height="70" as="geometry" />
          </mxCell>
        </UserObject>
        <UserObject label="&lt;div style=&quot;text-align: center&quot;&gt;&lt;span&gt;%IssueType%&lt;/span&gt;&lt;/div&gt;&lt;i style=&quot;color: gray&quot;&gt;%ActionName%&lt;br&gt;&lt;/i&gt;&lt;i style=&quot;color: gray&quot;&gt;%Option%&lt;br&gt;&lt;/i&gt;" placeholders="1" IssueType="Sub-Task" ActionName="UI기획서" Option="CMS필수" id="ul-tW43uK6jAfi8oGgl1-18">
          <mxCell style="label;image=data:image/svg+xml,PHN2ZyB4bWxucz0iaHR0cDovL3d3dy53My5vcmcvMjAwMC9zdmciIHdpZHRoPSIxNiIgaGVpZ2h0PSIxNiIgdmlld0JveD0iMCAwIDE2IDE2Ij48ZyBmaWxsPSJub25lIiBmaWxsLXJ1bGU9ImV2ZW5vZGQiPjxwYXRoIGQ9Ik0wIDEuNzc3QzAgLjc5Ni43OTYgMCAxLjc3NyAwaDEyLjQ0NkMxNS4yMDQgMCAxNiAuNzk2IDE2IDEuNzc3djEyLjQ0NmMwIC45ODEtLjc5NiAxLjc3Ny0xLjc3NyAxLjc3N0gxLjc3N0ExLjc3OCAxLjc3OCAwIDAgMSAwIDE0LjIyM1YxLjc3N3oiIGZpbGw9IiMyNjg0RkYiLz48cGF0aCBkPSJNNy45MzMgN2g0LjEzNGMuNTE1IDAgLjkzMy40MTguOTMzLjkzM3Y0LjEzNGEuOTMzLjkzMyAwIDAgMS0uOTMzLjkzM0g3LjkzM0EuOTMzLjkzMyAwIDAgMSA3IDEyLjA2N1Y3LjkzM0M3IDcuNDE4IDcuNDE4IDcgNy45MzMgN3oiIGZpbGw9IiNGRkYiLz48cGF0aCBkPSJNNC41IDQuNXYzaDN2LTNoLTN6TTMuOTMzIDNoNC4xMzRjLjUxNSAwIC45MzMuNDE4LjkzMy45MzN2NC4xMzRBLjkzMy45MzMgMCAwIDEgOC4wNjcgOUgzLjkzM0EuOTMzLjkzMyAwIDAgMSAzIDguMDY3VjMuOTMzQzMgMy40MTggMy40MTggMyAzLjkzMyAzeiIgZmlsbD0iI0ZGRiIgZmlsbC1ydWxlPSJub256ZXJvIi8+PC9nPjwvc3ZnPg==;whiteSpace=wrap;html=1;rounded=0;glass=0;treeMoving=1;treeFolding=1;direction=east;fillColor=#fff2cc;strokeColor=#d6b656;" parent="dNxyNK7c78bLwvsdeMH5-11" vertex="1">
            <mxGeometry x="393" y="290" width="180" height="70" as="geometry" />
          </mxCell>
        </UserObject>
        <UserObject label="&lt;div style=&quot;text-align: center&quot;&gt;&lt;span&gt;%IssueType%&lt;/span&gt;&lt;/div&gt;&lt;i style=&quot;color: gray&quot;&gt;%Sprint%&lt;br&gt;&lt;/i&gt;&lt;i style=&quot;color: gray&quot;&gt;%Component%&lt;br&gt;&lt;/i&gt;" placeholders="1" IssueType="Epic" Sprint="1개 이상의 Sprint" Component="1개 이상의 Component" id="dNxyNK7c78bLwvsdeMH5-12">
          <mxCell style="label;image=data:image/svg+xml,PHN2ZyB4bWxucz0iaHR0cDovL3d3dy53My5vcmcvMjAwMC9zdmciIHdpZHRoPSIxNi4wMDAwMDM4MTQ2OTcyNjYiIGhlaWdodD0iMTYuMDAwMDAzODE0Njk3MjY2IiB2aWV3Qm94PSItMC4wMDAwMDEwMDEwOTI1Mjc5ODU3NDc0IC0wLjAwMDAwMTAwMTgwNjAyNjU3OTI4ODMgMTYuMDAwMDAzODE0Njk3MjY2IDE2LjAwMDAwMzgxNDY5NzI2NiI+PGcgZmlsbD0ibm9uZSIgZmlsbC1ydWxlPSJldmVub2RkIj48cGF0aCBkPSJNMCAyLjAwMkEyIDIgMCAwIDEgMi4wMDIgMGgxMS45OTZBMiAyIDAgMCAxIDE2IDIuMDAydjExLjk5NkEyIDIgMCAwIDEgMTMuOTk4IDE2SDIuMDAyQTIgMiAwIDAgMSAwIDEzLjk5OFYyLjAwMnoiIGZpbGw9IiM2NTU0QzAiLz48cGF0aCBkPSJNMTEuODk4IDcuNjY2YS42NzguNjc4IDAgMCAwLS41NjQtMS4wNEw4IDYuNjI0VjMuMTg3YS42NzguNjc4IDAgMCAwLS42NjYtLjY4Ny42NS42NSAwIDAgMC0uNTQuMzA3LjY5My42OTMgMCAwIDAtLjA4OC4xNzhsLTIuNTk4IDUuMzRBLjczOC43MzggMCAwIDAgNCA4LjY4OWMwIC4zOC4zLjY4Ny42NjcuNjg3SDh2My40MzhjMCAuMzguMy42ODcuNjY3LjY4N2EuNjU1LjY1NSAwIDAgMCAuNTU3LS4zMzFsLjAyMi0uMDM1Yy4wMTQtLjAyOS4wMy0uMDU1LjA0MS0uMDg1bDIuNjEtNS4zODN6IiBmaWxsPSIjRkZGIiBmaWxsLXJ1bGU9Im5vbnplcm8iLz48L2c+PC9zdmc+;whiteSpace=wrap;html=1;rounded=0;glass=0;treeMoving=1;treeFolding=1;direction=east;" parent="dNxyNK7c78bLwvsdeMH5-11" vertex="1">
            <mxGeometry x="310" y="50" width="190" height="80" as="geometry" />
          </mxCell>
        </UserObject>
        <UserObject label="&lt;div style=&quot;text-align: center&quot;&gt;&lt;span&gt;%IssueType%&lt;/span&gt;&lt;/div&gt;&lt;i style=&quot;color: gray&quot;&gt;%Sprint%&lt;br&gt;&lt;/i&gt;&lt;i style=&quot;color: gray&quot;&gt;%Component%&lt;br&gt;&lt;/i&gt;" placeholders="1" IssueType="Task" Sprint="1개의 Sprint" Component="1개의 Component" id="Jup9wt5_tqh57v724iOX-5">
          <mxCell style="label;image=data:image/svg+xml,PHN2ZyB4bWxucz0iaHR0cDovL3d3dy53My5vcmcvMjAwMC9zdmciIHdpZHRoPSIxNiIgaGVpZ2h0PSIxNiIgdmlld0JveD0iMCAwIDE2IDE2Ij48ZyBmaWxsPSJub25lIiBmaWxsLXJ1bGU9ImV2ZW5vZGQiPjxwYXRoIGQ9Ik0wIDEuNzc3QzAgLjc5Ni43OTYgMCAxLjc3NyAwaDEyLjQ0NkMxNS4yMDQgMCAxNiAuNzk2IDE2IDEuNzc3djEyLjQ0NmMwIC45ODEtLjc5NiAxLjc3Ny0xLjc3NyAxLjc3N0gxLjc3N0ExLjc3OCAxLjc3OCAwIDAgMSAwIDE0LjIyM1YxLjc3N3oiIHN0cm9rZS1saW5lY2FwPSJyb3VuZCIgc3Ryb2tlLWxpbmVqb2luPSJyb3VuZCIgZmlsbD0iIzI2ODRGRiIvPjxwYXRoIGQ9Ik02LjUgMTAuMDg2bDUuNzkzLTUuNzkzYTEgMSAwIDAgMSAxLjQxNCAxLjQxNGwtNi41IDYuNWExIDEgMCAwIDEtMS40MTQgMGwtMy41LTMuNWExIDEgMCAwIDEgMS40MTQtMS40MTRMNi41IDEwLjA4NnoiIGZpbGw9IiNGRkYiIGZpbGwtcnVsZT0ibm9uemVybyIvPjwvZz48L3N2Zz4=;whiteSpace=wrap;html=1;rounded=0;glass=0;treeMoving=1;treeFolding=1;direction=east;" parent="dNxyNK7c78bLwvsdeMH5-11" vertex="1">
            <mxGeometry x="310" y="180" width="190" height="80" as="geometry" />
          </mxCell>
        </UserObject>
        <UserObject label="&lt;div style=&quot;text-align: center&quot;&gt;&lt;span&gt;%IssueType%&lt;/span&gt;&lt;/div&gt;&lt;i style=&quot;color: gray&quot;&gt;%Sprint%&lt;br&gt;&lt;/i&gt;&lt;i style=&quot;color: gray&quot;&gt;%Component%&lt;br&gt;&lt;/i&gt;" placeholders="1" IssueType="Bug" Sprint="1개의 Sprint" Component="1개의 Component" id="Jup9wt5_tqh57v724iOX-6">
          <mxCell style="label;image=data:image/svg+xml,PHN2ZyB4bWxucz0iaHR0cDovL3d3dy53My5vcmcvMjAwMC9zdmciIHdpZHRoPSIxNiIgaGVpZ2h0PSIxNiIgdmlld0JveD0iMCAwIDE2IDE2Ij48ZyBmaWxsPSJub25lIiBmaWxsLXJ1bGU9ImV2ZW5vZGQiPjxwYXRoIGQ9Ik0wIDEuNzc3QzAgLjc5Ni43OTYgMCAxLjc3NyAwaDEyLjQ0NkMxNS4yMDQgMCAxNiAuNzk2IDE2IDEuNzc3djEyLjQ0NmMwIC45ODEtLjc5NiAxLjc3Ny0xLjc3NyAxLjc3N0gxLjc3N0ExLjc3OCAxLjc3OCAwIDAgMSAwIDE0LjIyM1YxLjc3N3oiIGZpbGw9IiNGRjU2MzAiLz48Y2lyY2xlIGZpbGw9IiNGRkYiIGN4PSI4IiBjeT0iOCIgcj0iNCIvPjwvZz48L3N2Zz4=;whiteSpace=wrap;html=1;rounded=0;glass=0;treeMoving=1;treeFolding=1;direction=east;" parent="dNxyNK7c78bLwvsdeMH5-11" vertex="1">
            <mxGeometry x="610" y="180" width="190" height="80" as="geometry" />
          </mxCell>
        </UserObject>
        <mxCell id="Jup9wt5_tqh57v724iOX-11" value="" style="endArrow=blockThin;endFill=1;fontSize=11;edgeStyle=elbowEdgeStyle;elbow=vertical;rounded=0;exitX=0.5;exitY=1;exitDx=0;exitDy=0;" parent="dNxyNK7c78bLwvsdeMH5-11" source="dNxyNK7c78bLwvsdeMH5-12" target="Jup9wt5_tqh57v724iOX-5" edge="1">
          <mxGeometry relative="1" as="geometry">
            <mxPoint x="360" y="140" as="sourcePoint" />
            <mxPoint x="155" y="190" as="targetPoint" />
          </mxGeometry>
        </mxCell>
        <mxCell id="Jup9wt5_tqh57v724iOX-12" value="" style="endArrow=blockThin;endFill=1;fontSize=11;edgeStyle=elbowEdgeStyle;elbow=vertical;rounded=0;exitX=0.5;exitY=1;exitDx=0;exitDy=0;entryX=0.5;entryY=0;entryDx=0;entryDy=0;" parent="dNxyNK7c78bLwvsdeMH5-11" source="dNxyNK7c78bLwvsdeMH5-12" target="Jup9wt5_tqh57v724iOX-6" edge="1">
          <mxGeometry relative="1" as="geometry">
            <mxPoint x="360" y="140" as="sourcePoint" />
            <mxPoint x="365" y="190" as="targetPoint" />
          </mxGeometry>
        </mxCell>
        <mxCell id="Jup9wt5_tqh57v724iOX-21" style="edgeStyle=orthogonalEdgeStyle;rounded=0;orthogonalLoop=1;jettySize=auto;html=1;entryX=0;entryY=0.5;entryDx=0;entryDy=0;exitX=0.25;exitY=1;exitDx=0;exitDy=0;" parent="dNxyNK7c78bLwvsdeMH5-11" source="Jup9wt5_tqh57v724iOX-1" target="Jup9wt5_tqh57v724iOX-20" edge="1">
          <mxGeometry relative="1" as="geometry" />
        </mxCell>
        <UserObject label="&lt;div style=&quot;text-align: center&quot;&gt;&lt;span&gt;%IssueType%&lt;/span&gt;&lt;/div&gt;&lt;i style=&quot;color: gray&quot;&gt;%Sprint%&lt;br&gt;&lt;/i&gt;&lt;i style=&quot;color: gray&quot;&gt;%Component%&lt;br&gt;&lt;/i&gt;" placeholders="1" IssueType="Story" Sprint="1개의 Sprint" Component="1개의 Component" id="Jup9wt5_tqh57v724iOX-1">
          <mxCell style="label;image=data:image/svg+xml,PHN2ZyB4bWxucz0iaHR0cDovL3d3dy53My5vcmcvMjAwMC9zdmciIHdpZHRoPSIxNiIgaGVpZ2h0PSIxNiIgdmlld0JveD0iMCAwIDE2IDE2Ij48ZyBmaWxsPSJub25lIiBmaWxsLXJ1bGU9ImV2ZW5vZGQiPjxwYXRoIGQ9Ik0wIDEuNzc3QzAgLjc5Ni43OTYgMCAxLjc3NyAwaDEyLjQ0NkMxNS4yMDQgMCAxNiAuNzk2IDE2IDEuNzc3djEyLjQ0NmMwIC45ODEtLjc5NiAxLjc3Ny0xLjc3NyAxLjc3N0gxLjc3N0ExLjc3OCAxLjc3OCAwIDAgMSAwIDE0LjIyM1YxLjc3N3oiIGZpbGw9IiMzNkIzN0UiLz48cGF0aCBkPSJNNC41IDEyLjVWNC4zNzhjMC0uNDg1LjM5Mi0uODc4Ljg3NS0uODc4aDUuMjVjLjQ4MyAwIC44NzUuMzkzLjg3NS44NzhWMTIuNUw4IDguOTg4IDQuNSAxMi41eiIgZmlsbD0iI0ZGRiIvPjwvZz48L3N2Zz4=;whiteSpace=wrap;html=1;rounded=0;glass=0;treeMoving=1;treeFolding=1;direction=east;" parent="dNxyNK7c78bLwvsdeMH5-11" vertex="1">
            <mxGeometry x="50" y="180" width="190" height="80" as="geometry" />
          </mxCell>
        </UserObject>
        <mxCell id="Jup9wt5_tqh57v724iOX-4" style="edgeStyle=orthogonalEdgeStyle;rounded=0;orthogonalLoop=1;jettySize=auto;html=1;exitX=0.5;exitY=1;exitDx=0;exitDy=0;" parent="dNxyNK7c78bLwvsdeMH5-11" source="Jup9wt5_tqh57v724iOX-1" target="Jup9wt5_tqh57v724iOX-1" edge="1">
          <mxGeometry relative="1" as="geometry" />
        </mxCell>
        <mxCell id="Jup9wt5_tqh57v724iOX-2" value="" style="endArrow=blockThin;endFill=1;fontSize=11;edgeStyle=elbowEdgeStyle;elbow=vertical;rounded=0;exitX=0.5;exitY=1;exitDx=0;exitDy=0;" parent="dNxyNK7c78bLwvsdeMH5-11" source="dNxyNK7c78bLwvsdeMH5-12" target="Jup9wt5_tqh57v724iOX-1" edge="1">
          <mxGeometry relative="1" as="geometry">
            <mxPoint x="370" y="135" as="sourcePoint" />
            <mxPoint x="600" y="185" as="targetPoint" />
          </mxGeometry>
        </mxCell>
        <UserObject label="&lt;div style=&quot;text-align: center&quot;&gt;&lt;span&gt;%IssueType%&lt;/span&gt;&lt;/div&gt;&lt;i style=&quot;color: gray&quot;&gt;%ActionName%&lt;br&gt;&lt;/i&gt;&lt;i style=&quot;color: gray&quot;&gt;%Option%&lt;br&gt;&lt;/i&gt;" placeholders="1" IssueType="Sub-Task" ActionName="개밞명세서" Option="필수" id="Jup9wt5_tqh57v724iOX-20">
          <mxCell style="label;image=data:image/svg+xml,PHN2ZyB4bWxucz0iaHR0cDovL3d3dy53My5vcmcvMjAwMC9zdmciIHdpZHRoPSIxNiIgaGVpZ2h0PSIxNiIgdmlld0JveD0iMCAwIDE2IDE2Ij48ZyBmaWxsPSJub25lIiBmaWxsLXJ1bGU9ImV2ZW5vZGQiPjxwYXRoIGQ9Ik0wIDEuNzc3QzAgLjc5Ni43OTYgMCAxLjc3NyAwaDEyLjQ0NkMxNS4yMDQgMCAxNiAuNzk2IDE2IDEuNzc3djEyLjQ0NmMwIC45ODEtLjc5NiAxLjc3Ny0xLjc3NyAxLjc3N0gxLjc3N0ExLjc3OCAxLjc3OCAwIDAgMSAwIDE0LjIyM1YxLjc3N3oiIGZpbGw9IiMyNjg0RkYiLz48cGF0aCBkPSJNNy45MzMgN2g0LjEzNGMuNTE1IDAgLjkzMy40MTguOTMzLjkzM3Y0LjEzNGEuOTMzLjkzMyAwIDAgMS0uOTMzLjkzM0g3LjkzM0EuOTMzLjkzMyAwIDAgMSA3IDEyLjA2N1Y3LjkzM0M3IDcuNDE4IDcuNDE4IDcgNy45MzMgN3oiIGZpbGw9IiNGRkYiLz48cGF0aCBkPSJNNC41IDQuNXYzaDN2LTNoLTN6TTMuOTMzIDNoNC4xMzRjLjUxNSAwIC45MzMuNDE4LjkzMy45MzN2NC4xMzRBLjkzMy45MzMgMCAwIDEgOC4wNjcgOUgzLjkzM0EuOTMzLjkzMyAwIDAgMSAzIDguMDY3VjMuOTMzQzMgMy40MTggMy40MTggMyAzLjkzMyAzeiIgZmlsbD0iI0ZGRiIgZmlsbC1ydWxlPSJub256ZXJvIi8+PC9nPjwvc3ZnPg==;whiteSpace=wrap;html=1;rounded=0;glass=0;treeMoving=1;treeFolding=1;direction=east;fillColor=#dae8fc;strokeColor=#6c8ebf;" parent="dNxyNK7c78bLwvsdeMH5-11" vertex="1">
            <mxGeometry x="130" y="280" width="180" height="70" as="geometry" />
          </mxCell>
        </UserObject>
        <UserObject label="&lt;div style=&quot;text-align: center&quot;&gt;&lt;span&gt;%IssueType%&lt;/span&gt;&lt;/div&gt;&lt;i style=&quot;color: gray&quot;&gt;%ActionName%&lt;br&gt;&lt;/i&gt;&lt;i style=&quot;color: gray&quot;&gt;%Option%&lt;br&gt;&lt;/i&gt;" placeholders="1" IssueType="Sub-Task" ActionName="UI기획서" Option="CMS필수" id="ul-tW43uK6jAfi8oGgl1-3">
          <mxCell style="label;image=data:image/svg+xml,PHN2ZyB4bWxucz0iaHR0cDovL3d3dy53My5vcmcvMjAwMC9zdmciIHdpZHRoPSIxNiIgaGVpZ2h0PSIxNiIgdmlld0JveD0iMCAwIDE2IDE2Ij48ZyBmaWxsPSJub25lIiBmaWxsLXJ1bGU9ImV2ZW5vZGQiPjxwYXRoIGQ9Ik0wIDEuNzc3QzAgLjc5Ni43OTYgMCAxLjc3NyAwaDEyLjQ0NkMxNS4yMDQgMCAxNiAuNzk2IDE2IDEuNzc3djEyLjQ0NmMwIC45ODEtLjc5NiAxLjc3Ny0xLjc3NyAxLjc3N0gxLjc3N0ExLjc3OCAxLjc3OCAwIDAgMSAwIDE0LjIyM1YxLjc3N3oiIGZpbGw9IiMyNjg0RkYiLz48cGF0aCBkPSJNNy45MzMgN2g0LjEzNGMuNTE1IDAgLjkzMy40MTguOTMzLjkzM3Y0LjEzNGEuOTMzLjkzMyAwIDAgMS0uOTMzLjkzM0g3LjkzM0EuOTMzLjkzMyAwIDAgMSA3IDEyLjA2N1Y3LjkzM0M3IDcuNDE4IDcuNDE4IDcgNy45MzMgN3oiIGZpbGw9IiNGRkYiLz48cGF0aCBkPSJNNC41IDQuNXYzaDN2LTNoLTN6TTMuOTMzIDNoNC4xMzRjLjUxNSAwIC45MzMuNDE4LjkzMy45MzN2NC4xMzRBLjkzMy45MzMgMCAwIDEgOC4wNjcgOUgzLjkzM0EuOTMzLjkzMyAwIDAgMSAzIDguMDY3VjMuOTMzQzMgMy40MTggMy40MTggMyAzLjkzMyAzeiIgZmlsbD0iI0ZGRiIgZmlsbC1ydWxlPSJub256ZXJvIi8+PC9nPjwvc3ZnPg==;whiteSpace=wrap;html=1;rounded=0;glass=0;treeMoving=1;treeFolding=1;direction=east;fillColor=#dae8fc;strokeColor=#6c8ebf;" parent="dNxyNK7c78bLwvsdeMH5-11" vertex="1">
            <mxGeometry x="130" y="360" width="180" height="70" as="geometry" />
          </mxCell>
        </UserObject>
        <mxCell id="ul-tW43uK6jAfi8oGgl1-4" style="edgeStyle=orthogonalEdgeStyle;rounded=0;orthogonalLoop=1;jettySize=auto;html=1;entryX=0;entryY=0.5;entryDx=0;entryDy=0;exitX=0.25;exitY=1;exitDx=0;exitDy=0;" parent="dNxyNK7c78bLwvsdeMH5-11" source="Jup9wt5_tqh57v724iOX-1" target="ul-tW43uK6jAfi8oGgl1-3" edge="1">
          <mxGeometry relative="1" as="geometry">
            <mxPoint x="97.5" y="260" as="sourcePoint" />
            <mxPoint x="130" y="315" as="targetPoint" />
          </mxGeometry>
        </mxCell>
        <UserObject label="&lt;div style=&quot;text-align: center&quot;&gt;&lt;span&gt;%IssueType%&lt;/span&gt;&lt;/div&gt;&lt;i style=&quot;color: gray&quot;&gt;%ActionName%&lt;br&gt;&lt;/i&gt;&lt;i style=&quot;color: gray&quot;&gt;%Option%&lt;br&gt;&lt;/i&gt;" placeholders="1" IssueType="Sub-Task" ActionName="상세설계서(테이블정의서)" Option="선택" id="ul-tW43uK6jAfi8oGgl1-8">
          <mxCell style="label;image=data:image/svg+xml,PHN2ZyB4bWxucz0iaHR0cDovL3d3dy53My5vcmcvMjAwMC9zdmciIHdpZHRoPSIxNiIgaGVpZ2h0PSIxNiIgdmlld0JveD0iMCAwIDE2IDE2Ij48ZyBmaWxsPSJub25lIiBmaWxsLXJ1bGU9ImV2ZW5vZGQiPjxwYXRoIGQ9Ik0wIDEuNzc3QzAgLjc5Ni43OTYgMCAxLjc3NyAwaDEyLjQ0NkMxNS4yMDQgMCAxNiAuNzk2IDE2IDEuNzc3djEyLjQ0NmMwIC45ODEtLjc5NiAxLjc3Ny0xLjc3NyAxLjc3N0gxLjc3N0ExLjc3OCAxLjc3OCAwIDAgMSAwIDE0LjIyM1YxLjc3N3oiIGZpbGw9IiMyNjg0RkYiLz48cGF0aCBkPSJNNy45MzMgN2g0LjEzNGMuNTE1IDAgLjkzMy40MTguOTMzLjkzM3Y0LjEzNGEuOTMzLjkzMyAwIDAgMS0uOTMzLjkzM0g3LjkzM0EuOTMzLjkzMyAwIDAgMSA3IDEyLjA2N1Y3LjkzM0M3IDcuNDE4IDcuNDE4IDcgNy45MzMgN3oiIGZpbGw9IiNGRkYiLz48cGF0aCBkPSJNNC41IDQuNXYzaDN2LTNoLTN6TTMuOTMzIDNoNC4xMzRjLjUxNSAwIC45MzMuNDE4LjkzMy45MzN2NC4xMzRBLjkzMy45MzMgMCAwIDEgOC4wNjcgOUgzLjkzM0EuOTMzLjkzMyAwIDAgMSAzIDguMDY3VjMuOTMzQzMgMy40MTggMy40MTggMyAzLjkzMyAzeiIgZmlsbD0iI0ZGRiIgZmlsbC1ydWxlPSJub256ZXJvIi8+PC9nPjwvc3ZnPg==;whiteSpace=wrap;html=1;rounded=0;glass=0;treeMoving=1;treeFolding=1;direction=east;fillColor=#fff2cc;strokeColor=#d6b656;" parent="dNxyNK7c78bLwvsdeMH5-11" vertex="1">
            <mxGeometry x="130" y="680" width="180" height="70" as="geometry" />
          </mxCell>
        </UserObject>
        <mxCell id="ul-tW43uK6jAfi8oGgl1-9" style="edgeStyle=orthogonalEdgeStyle;rounded=0;orthogonalLoop=1;jettySize=auto;html=1;entryX=0;entryY=0.5;entryDx=0;entryDy=0;exitX=0.25;exitY=1;exitDx=0;exitDy=0;" parent="dNxyNK7c78bLwvsdeMH5-11" source="Jup9wt5_tqh57v724iOX-1" target="ul-tW43uK6jAfi8oGgl1-8" edge="1">
          <mxGeometry relative="1" as="geometry">
            <mxPoint x="107.5" y="270" as="sourcePoint" />
            <mxPoint x="140" y="495" as="targetPoint" />
            <Array as="points">
              <mxPoint x="98" y="715" />
            </Array>
          </mxGeometry>
        </mxCell>
        <UserObject label="&lt;div style=&quot;text-align: center&quot;&gt;&lt;span&gt;%IssueType%&lt;/span&gt;&lt;/div&gt;&lt;i style=&quot;color: gray&quot;&gt;%ActionName%&lt;br&gt;&lt;/i&gt;&lt;i style=&quot;color: gray&quot;&gt;%Option%&lt;br&gt;&lt;/i&gt;" placeholders="1" IssueType="Sub-Task" ActionName="테스트시나리오" Option="필수" id="ul-tW43uK6jAfi8oGgl1-10">
          <mxCell style="label;image=data:image/svg+xml,PHN2ZyB4bWxucz0iaHR0cDovL3d3dy53My5vcmcvMjAwMC9zdmciIHdpZHRoPSIxNiIgaGVpZ2h0PSIxNiIgdmlld0JveD0iMCAwIDE2IDE2Ij48ZyBmaWxsPSJub25lIiBmaWxsLXJ1bGU9ImV2ZW5vZGQiPjxwYXRoIGQ9Ik0wIDEuNzc3QzAgLjc5Ni43OTYgMCAxLjc3NyAwaDEyLjQ0NkMxNS4yMDQgMCAxNiAuNzk2IDE2IDEuNzc3djEyLjQ0NmMwIC45ODEtLjc5NiAxLjc3Ny0xLjc3NyAxLjc3N0gxLjc3N0ExLjc3OCAxLjc3OCAwIDAgMSAwIDE0LjIyM1YxLjc3N3oiIGZpbGw9IiMyNjg0RkYiLz48cGF0aCBkPSJNNy45MzMgN2g0LjEzNGMuNTE1IDAgLjkzMy40MTguOTMzLjkzM3Y0LjEzNGEuOTMzLjkzMyAwIDAgMS0uOTMzLjkzM0g3LjkzM0EuOTMzLjkzMyAwIDAgMSA3IDEyLjA2N1Y3LjkzM0M3IDcuNDE4IDcuNDE4IDcgNy45MzMgN3oiIGZpbGw9IiNGRkYiLz48cGF0aCBkPSJNNC41IDQuNXYzaDN2LTNoLTN6TTMuOTMzIDNoNC4xMzRjLjUxNSAwIC45MzMuNDE4LjkzMy45MzN2NC4xMzRBLjkzMy45MzMgMCAwIDEgOC4wNjcgOUgzLjkzM0EuOTMzLjkzMyAwIDAgMSAzIDguMDY3VjMuOTMzQzMgMy40MTggMy40MTggMyAzLjkzMyAzeiIgZmlsbD0iI0ZGRiIgZmlsbC1ydWxlPSJub256ZXJvIi8+PC9nPjwvc3ZnPg==;whiteSpace=wrap;html=1;rounded=0;glass=0;treeMoving=1;treeFolding=1;direction=east;fillColor=#dae8fc;strokeColor=#6c8ebf;" parent="dNxyNK7c78bLwvsdeMH5-11" vertex="1">
            <mxGeometry x="130" y="440" width="180" height="70" as="geometry" />
          </mxCell>
        </UserObject>
        <mxCell id="ul-tW43uK6jAfi8oGgl1-11" style="edgeStyle=orthogonalEdgeStyle;rounded=0;orthogonalLoop=1;jettySize=auto;html=1;entryX=0;entryY=0.5;entryDx=0;entryDy=0;exitX=0.25;exitY=1;exitDx=0;exitDy=0;" parent="dNxyNK7c78bLwvsdeMH5-11" source="Jup9wt5_tqh57v724iOX-1" target="ul-tW43uK6jAfi8oGgl1-10" edge="1">
          <mxGeometry relative="1" as="geometry">
            <mxPoint x="97.5" y="260" as="sourcePoint" />
            <mxPoint x="130" y="570" as="targetPoint" />
            <Array as="points">
              <mxPoint x="98" y="475" />
            </Array>
          </mxGeometry>
        </mxCell>
        <UserObject label="&lt;div style=&quot;text-align: center&quot;&gt;&lt;span&gt;%IssueType%&lt;/span&gt;&lt;/div&gt;&lt;i style=&quot;color: gray&quot;&gt;%ActionName%&lt;br&gt;&lt;/i&gt;&lt;i style=&quot;color: gray&quot;&gt;%Option%&lt;br&gt;&lt;/i&gt;" placeholders="1" IssueType="Sub-Task" ActionName="상세설계서(Flow Chart)" Option="선택" id="ul-tW43uK6jAfi8oGgl1-5">
          <mxCell style="label;image=data:image/svg+xml,PHN2ZyB4bWxucz0iaHR0cDovL3d3dy53My5vcmcvMjAwMC9zdmciIHdpZHRoPSIxNiIgaGVpZ2h0PSIxNiIgdmlld0JveD0iMCAwIDE2IDE2Ij48ZyBmaWxsPSJub25lIiBmaWxsLXJ1bGU9ImV2ZW5vZGQiPjxwYXRoIGQ9Ik0wIDEuNzc3QzAgLjc5Ni43OTYgMCAxLjc3NyAwaDEyLjQ0NkMxNS4yMDQgMCAxNiAuNzk2IDE2IDEuNzc3djEyLjQ0NmMwIC45ODEtLjc5NiAxLjc3Ny0xLjc3NyAxLjc3N0gxLjc3N0ExLjc3OCAxLjc3OCAwIDAgMSAwIDE0LjIyM1YxLjc3N3oiIGZpbGw9IiMyNjg0RkYiLz48cGF0aCBkPSJNNy45MzMgN2g0LjEzNGMuNTE1IDAgLjkzMy40MTguOTMzLjkzM3Y0LjEzNGEuOTMzLjkzMyAwIDAgMS0uOTMzLjkzM0g3LjkzM0EuOTMzLjkzMyAwIDAgMSA3IDEyLjA2N1Y3LjkzM0M3IDcuNDE4IDcuNDE4IDcgNy45MzMgN3oiIGZpbGw9IiNGRkYiLz48cGF0aCBkPSJNNC41IDQuNXYzaDN2LTNoLTN6TTMuOTMzIDNoNC4xMzRjLjUxNSAwIC45MzMuNDE4LjkzMy45MzN2NC4xMzRBLjkzMy45MzMgMCAwIDEgOC4wNjcgOUgzLjkzM0EuOTMzLjkzMyAwIDAgMSAzIDguMDY3VjMuOTMzQzMgMy40MTggMy40MTggMyAzLjkzMyAzeiIgZmlsbD0iI0ZGRiIgZmlsbC1ydWxlPSJub256ZXJvIi8+PC9nPjwvc3ZnPg==;whiteSpace=wrap;html=1;rounded=0;glass=0;treeMoving=1;treeFolding=1;direction=east;fillColor=#fff2cc;strokeColor=#d6b656;" parent="dNxyNK7c78bLwvsdeMH5-11" vertex="1">
            <mxGeometry x="130" y="600" width="180" height="70" as="geometry" />
          </mxCell>
        </UserObject>
        <mxCell id="ul-tW43uK6jAfi8oGgl1-6" style="edgeStyle=orthogonalEdgeStyle;rounded=0;orthogonalLoop=1;jettySize=auto;html=1;entryX=0;entryY=0.5;entryDx=0;entryDy=0;exitX=0.25;exitY=1;exitDx=0;exitDy=0;" parent="dNxyNK7c78bLwvsdeMH5-11" source="Jup9wt5_tqh57v724iOX-1" target="ul-tW43uK6jAfi8oGgl1-5" edge="1">
          <mxGeometry relative="1" as="geometry">
            <mxPoint x="97.5" y="270" as="sourcePoint" />
            <mxPoint x="130" y="405" as="targetPoint" />
          </mxGeometry>
        </mxCell>
        <UserObject label="&lt;div style=&quot;text-align: center&quot;&gt;&lt;span&gt;%IssueType%&lt;/span&gt;&lt;/div&gt;&lt;i style=&quot;color: gray&quot;&gt;%ActionName%&lt;br&gt;&lt;/i&gt;&lt;i style=&quot;color: gray&quot;&gt;%Option%&lt;br&gt;&lt;/i&gt;" placeholders="1" IssueType="Sub-Task" ActionName="사용자메뉴얼" Option="CMS필수" id="ul-tW43uK6jAfi8oGgl1-12">
          <mxCell style="label;image=data:image/svg+xml,PHN2ZyB4bWxucz0iaHR0cDovL3d3dy53My5vcmcvMjAwMC9zdmciIHdpZHRoPSIxNiIgaGVpZ2h0PSIxNiIgdmlld0JveD0iMCAwIDE2IDE2Ij48ZyBmaWxsPSJub25lIiBmaWxsLXJ1bGU9ImV2ZW5vZGQiPjxwYXRoIGQ9Ik0wIDEuNzc3QzAgLjc5Ni43OTYgMCAxLjc3NyAwaDEyLjQ0NkMxNS4yMDQgMCAxNiAuNzk2IDE2IDEuNzc3djEyLjQ0NmMwIC45ODEtLjc5NiAxLjc3Ny0xLjc3NyAxLjc3N0gxLjc3N0ExLjc3OCAxLjc3OCAwIDAgMSAwIDE0LjIyM1YxLjc3N3oiIGZpbGw9IiMyNjg0RkYiLz48cGF0aCBkPSJNNy45MzMgN2g0LjEzNGMuNTE1IDAgLjkzMy40MTguOTMzLjkzM3Y0LjEzNGEuOTMzLjkzMyAwIDAgMS0uOTMzLjkzM0g3LjkzM0EuOTMzLjkzMyAwIDAgMSA3IDEyLjA2N1Y3LjkzM0M3IDcuNDE4IDcuNDE4IDcgNy45MzMgN3oiIGZpbGw9IiNGRkYiLz48cGF0aCBkPSJNNC41IDQuNXYzaDN2LTNoLTN6TTMuOTMzIDNoNC4xMzRjLjUxNSAwIC45MzMuNDE4LjkzMy45MzN2NC4xMzRBLjkzMy45MzMgMCAwIDEgOC4wNjcgOUgzLjkzM0EuOTMzLjkzMyAwIDAgMSAzIDguMDY3VjMuOTMzQzMgMy40MTggMy40MTggMyAzLjkzMyAzeiIgZmlsbD0iI0ZGRiIgZmlsbC1ydWxlPSJub256ZXJvIi8+PC9nPjwvc3ZnPg==;whiteSpace=wrap;html=1;rounded=0;glass=0;treeMoving=1;treeFolding=1;direction=east;fillColor=#dae8fc;strokeColor=#6c8ebf;" parent="dNxyNK7c78bLwvsdeMH5-11" vertex="1">
            <mxGeometry x="130" y="520" width="180" height="70" as="geometry" />
          </mxCell>
        </UserObject>
        <mxCell id="ul-tW43uK6jAfi8oGgl1-13" style="edgeStyle=orthogonalEdgeStyle;rounded=0;orthogonalLoop=1;jettySize=auto;html=1;entryX=0;entryY=0.5;entryDx=0;entryDy=0;exitX=0.25;exitY=1;exitDx=0;exitDy=0;" parent="dNxyNK7c78bLwvsdeMH5-11" source="Jup9wt5_tqh57v724iOX-1" target="ul-tW43uK6jAfi8oGgl1-12" edge="1">
          <mxGeometry relative="1" as="geometry">
            <mxPoint x="97.5" y="260" as="sourcePoint" />
            <mxPoint x="130" y="475" as="targetPoint" />
            <Array as="points">
              <mxPoint x="98" y="555" />
            </Array>
          </mxGeometry>
        </mxCell>
        <UserObject label="&lt;div style=&quot;text-align: center&quot;&gt;&lt;span&gt;%IssueType%&lt;/span&gt;&lt;/div&gt;&lt;i style=&quot;color: gray&quot;&gt;%ActionName%&lt;br&gt;&lt;/i&gt;&lt;i style=&quot;color: gray&quot;&gt;%Option%&lt;br&gt;&lt;/i&gt;" placeholders="1" IssueType="Sub-Task" ActionName="사용자정의작업" Option="선태" id="ul-tW43uK6jAfi8oGgl1-17">
          <mxCell style="label;image=data:image/svg+xml,PHN2ZyB4bWxucz0iaHR0cDovL3d3dy53My5vcmcvMjAwMC9zdmciIHdpZHRoPSIxNiIgaGVpZ2h0PSIxNiIgdmlld0JveD0iMCAwIDE2IDE2Ij48ZyBmaWxsPSJub25lIiBmaWxsLXJ1bGU9ImV2ZW5vZGQiPjxwYXRoIGQ9Ik0wIDEuNzc3QzAgLjc5Ni43OTYgMCAxLjc3NyAwaDEyLjQ0NkMxNS4yMDQgMCAxNiAuNzk2IDE2IDEuNzc3djEyLjQ0NmMwIC45ODEtLjc5NiAxLjc3Ny0xLjc3NyAxLjc3N0gxLjc3N0ExLjc3OCAxLjc3OCAwIDAgMSAwIDE0LjIyM1YxLjc3N3oiIGZpbGw9IiMyNjg0RkYiLz48cGF0aCBkPSJNNy45MzMgN2g0LjEzNGMuNTE1IDAgLjkzMy40MTguOTMzLjkzM3Y0LjEzNGEuOTMzLjkzMyAwIDAgMS0uOTMzLjkzM0g3LjkzM0EuOTMzLjkzMyAwIDAgMSA3IDEyLjA2N1Y3LjkzM0M3IDcuNDE4IDcuNDE4IDcgNy45MzMgN3oiIGZpbGw9IiNGRkYiLz48cGF0aCBkPSJNNC41IDQuNXYzaDN2LTNoLTN6TTMuOTMzIDNoNC4xMzRjLjUxNSAwIC45MzMuNDE4LjkzMy45MzN2NC4xMzRBLjkzMy45MzMgMCAwIDEgOC4wNjcgOUgzLjkzM0EuOTMzLjkzMyAwIDAgMSAzIDguMDY3VjMuOTMzQzMgMy40MTggMy40MTggMyAzLjkzMyAzeiIgZmlsbD0iI0ZGRiIgZmlsbC1ydWxlPSJub256ZXJvIi8+PC9nPjwvc3ZnPg==;whiteSpace=wrap;html=1;rounded=0;glass=0;treeMoving=1;treeFolding=1;direction=east;fillColor=#fff2cc;strokeColor=#d6b656;" parent="dNxyNK7c78bLwvsdeMH5-11" vertex="1">
            <mxGeometry x="377" y="280" width="180" height="70" as="geometry" />
          </mxCell>
        </UserObject>
        <mxCell id="ul-tW43uK6jAfi8oGgl1-23" style="edgeStyle=orthogonalEdgeStyle;rounded=0;orthogonalLoop=1;jettySize=auto;html=1;entryX=0;entryY=0.5;entryDx=0;entryDy=0;" parent="dNxyNK7c78bLwvsdeMH5-11" target="ul-tW43uK6jAfi8oGgl1-17" edge="1">
          <mxGeometry relative="1" as="geometry">
            <mxPoint x="350" y="261" as="sourcePoint" />
            <mxPoint x="190" y="325" as="targetPoint" />
            <Array as="points">
              <mxPoint x="350" y="315" />
            </Array>
          </mxGeometry>
        </mxCell>
        <UserObject label="&lt;div style=&quot;text-align: center&quot;&gt;&lt;span&gt;%IssueType%&lt;/span&gt;&lt;/div&gt;&lt;i style=&quot;color: gray&quot;&gt;%ActionName%&lt;br&gt;&lt;/i&gt;&lt;i style=&quot;color: gray&quot;&gt;%Option%&lt;br&gt;&lt;/i&gt;" placeholders="1" IssueType="Sub-Task" ActionName="상세설계서(테이블정의서)" Option="선택" id="ul-tW43uK6jAfi8oGgl1-25">
          <mxCell style="label;image=data:image/svg+xml,PHN2ZyB4bWxucz0iaHR0cDovL3d3dy53My5vcmcvMjAwMC9zdmciIHdpZHRoPSIxNiIgaGVpZ2h0PSIxNiIgdmlld0JveD0iMCAwIDE2IDE2Ij48ZyBmaWxsPSJub25lIiBmaWxsLXJ1bGU9ImV2ZW5vZGQiPjxwYXRoIGQ9Ik0wIDEuNzc3QzAgLjc5Ni43OTYgMCAxLjc3NyAwaDEyLjQ0NkMxNS4yMDQgMCAxNiAuNzk2IDE2IDEuNzc3djEyLjQ0NmMwIC45ODEtLjc5NiAxLjc3Ny0xLjc3NyAxLjc3N0gxLjc3N0ExLjc3OCAxLjc3OCAwIDAgMSAwIDE0LjIyM1YxLjc3N3oiIGZpbGw9IiMyNjg0RkYiLz48cGF0aCBkPSJNNy45MzMgN2g0LjEzNGMuNTE1IDAgLjkzMy40MTguOTMzLjkzM3Y0LjEzNGEuOTMzLjkzMyAwIDAgMS0uOTMzLjkzM0g3LjkzM0EuOTMzLjkzMyAwIDAgMSA3IDEyLjA2N1Y3LjkzM0M3IDcuNDE4IDcuNDE4IDcgNy45MzMgN3oiIGZpbGw9IiNGRkYiLz48cGF0aCBkPSJNNC41IDQuNXYzaDN2LTNoLTN6TTMuOTMzIDNoNC4xMzRjLjUxNSAwIC45MzMuNDE4LjkzMy45MzN2NC4xMzRBLjkzMy45MzMgMCAwIDEgOC4wNjcgOUgzLjkzM0EuOTMzLjkzMyAwIDAgMSAzIDguMDY3VjMuOTMzQzMgMy40MTggMy40MTggMyAzLjkzMyAzeiIgZmlsbD0iI0ZGRiIgZmlsbC1ydWxlPSJub256ZXJvIi8+PC9nPjwvc3ZnPg==;whiteSpace=wrap;html=1;rounded=0;glass=0;treeMoving=1;treeFolding=1;direction=east;fillColor=#fff2cc;strokeColor=#d6b656;" parent="dNxyNK7c78bLwvsdeMH5-11" vertex="1">
            <mxGeometry x="736" y="330" width="180" height="70" as="geometry" />
          </mxCell>
        </UserObject>
        <UserObject label="&lt;div style=&quot;text-align: center&quot;&gt;&lt;span&gt;%IssueType%&lt;/span&gt;&lt;/div&gt;&lt;i style=&quot;color: gray&quot;&gt;%ActionName%&lt;br&gt;&lt;/i&gt;&lt;i style=&quot;color: gray&quot;&gt;%Option%&lt;br&gt;&lt;/i&gt;" placeholders="1" IssueType="Sub-Task" ActionName="상세설계서(Flow Chart)" Option="선택" id="ul-tW43uK6jAfi8oGgl1-26">
          <mxCell style="label;image=data:image/svg+xml,PHN2ZyB4bWxucz0iaHR0cDovL3d3dy53My5vcmcvMjAwMC9zdmciIHdpZHRoPSIxNiIgaGVpZ2h0PSIxNiIgdmlld0JveD0iMCAwIDE2IDE2Ij48ZyBmaWxsPSJub25lIiBmaWxsLXJ1bGU9ImV2ZW5vZGQiPjxwYXRoIGQ9Ik0wIDEuNzc3QzAgLjc5Ni43OTYgMCAxLjc3NyAwaDEyLjQ0NkMxNS4yMDQgMCAxNiAuNzk2IDE2IDEuNzc3djEyLjQ0NmMwIC45ODEtLjc5NiAxLjc3Ny0xLjc3NyAxLjc3N0gxLjc3N0ExLjc3OCAxLjc3OCAwIDAgMSAwIDE0LjIyM1YxLjc3N3oiIGZpbGw9IiMyNjg0RkYiLz48cGF0aCBkPSJNNy45MzMgN2g0LjEzNGMuNTE1IDAgLjkzMy40MTguOTMzLjkzM3Y0LjEzNGEuOTMzLjkzMyAwIDAgMS0uOTMzLjkzM0g3LjkzM0EuOTMzLjkzMyAwIDAgMSA3IDEyLjA2N1Y3LjkzM0M3IDcuNDE4IDcuNDE4IDcgNy45MzMgN3oiIGZpbGw9IiNGRkYiLz48cGF0aCBkPSJNNC41IDQuNXYzaDN2LTNoLTN6TTMuOTMzIDNoNC4xMzRjLjUxNSAwIC45MzMuNDE4LjkzMy45MzN2NC4xMzRBLjkzMy45MzMgMCAwIDEgOC4wNjcgOUgzLjkzM0EuOTMzLjkzMyAwIDAgMSAzIDguMDY3VjMuOTMzQzMgMy40MTggMy40MTggMyAzLjkzMyAzeiIgZmlsbD0iI0ZGRiIgZmlsbC1ydWxlPSJub256ZXJvIi8+PC9nPjwvc3ZnPg==;whiteSpace=wrap;html=1;rounded=0;glass=0;treeMoving=1;treeFolding=1;direction=east;fillColor=#fff2cc;strokeColor=#d6b656;" parent="dNxyNK7c78bLwvsdeMH5-11" vertex="1">
            <mxGeometry x="726" y="320" width="180" height="70" as="geometry" />
          </mxCell>
        </UserObject>
        <UserObject label="&lt;div style=&quot;text-align: center&quot;&gt;&lt;span&gt;%IssueType%&lt;/span&gt;&lt;/div&gt;&lt;i style=&quot;color: gray&quot;&gt;%ActionName%&lt;br&gt;&lt;/i&gt;&lt;i style=&quot;color: gray&quot;&gt;%Option%&lt;br&gt;&lt;/i&gt;" placeholders="1" IssueType="Sub-Task" ActionName="사용자메뉴얼" Option="CMS필수" id="ul-tW43uK6jAfi8oGgl1-27">
          <mxCell style="label;image=data:image/svg+xml,PHN2ZyB4bWxucz0iaHR0cDovL3d3dy53My5vcmcvMjAwMC9zdmciIHdpZHRoPSIxNiIgaGVpZ2h0PSIxNiIgdmlld0JveD0iMCAwIDE2IDE2Ij48ZyBmaWxsPSJub25lIiBmaWxsLXJ1bGU9ImV2ZW5vZGQiPjxwYXRoIGQ9Ik0wIDEuNzc3QzAgLjc5Ni43OTYgMCAxLjc3NyAwaDEyLjQ0NkMxNS4yMDQgMCAxNiAuNzk2IDE2IDEuNzc3djEyLjQ0NmMwIC45ODEtLjc5NiAxLjc3Ny0xLjc3NyAxLjc3N0gxLjc3N0ExLjc3OCAxLjc3OCAwIDAgMSAwIDE0LjIyM1YxLjc3N3oiIGZpbGw9IiMyNjg0RkYiLz48cGF0aCBkPSJNNy45MzMgN2g0LjEzNGMuNTE1IDAgLjkzMy40MTguOTMzLjkzM3Y0LjEzNGEuOTMzLjkzMyAwIDAgMS0uOTMzLjkzM0g3LjkzM0EuOTMzLjkzMyAwIDAgMSA3IDEyLjA2N1Y3LjkzM0M3IDcuNDE4IDcuNDE4IDcgNy45MzMgN3oiIGZpbGw9IiNGRkYiLz48cGF0aCBkPSJNNC41IDQuNXYzaDN2LTNoLTN6TTMuOTMzIDNoNC4xMzRjLjUxNSAwIC45MzMuNDE4LjkzMy45MzN2NC4xMzRBLjkzMy45MzMgMCAwIDEgOC4wNjcgOUgzLjkzM0EuOTMzLjkzMyAwIDAgMSAzIDguMDY3VjMuOTMzQzMgMy40MTggMy40MTggMyAzLjkzMyAzeiIgZmlsbD0iI0ZGRiIgZmlsbC1ydWxlPSJub256ZXJvIi8+PC9nPjwvc3ZnPg==;whiteSpace=wrap;html=1;rounded=0;glass=0;treeMoving=1;treeFolding=1;direction=east;fillColor=#fff2cc;strokeColor=#d6b656;" parent="dNxyNK7c78bLwvsdeMH5-11" vertex="1">
            <mxGeometry x="716" y="310" width="180" height="70" as="geometry" />
          </mxCell>
        </UserObject>
        <UserObject label="&lt;div style=&quot;text-align: center&quot;&gt;&lt;span&gt;%IssueType%&lt;/span&gt;&lt;/div&gt;&lt;i style=&quot;color: gray&quot;&gt;%ActionName%&lt;br&gt;&lt;/i&gt;&lt;i style=&quot;color: gray&quot;&gt;%Option%&lt;br&gt;&lt;/i&gt;" placeholders="1" IssueType="Sub-Task" ActionName="테스트시나리오" Option="필수" id="ul-tW43uK6jAfi8oGgl1-28">
          <mxCell style="label;image=data:image/svg+xml,PHN2ZyB4bWxucz0iaHR0cDovL3d3dy53My5vcmcvMjAwMC9zdmciIHdpZHRoPSIxNiIgaGVpZ2h0PSIxNiIgdmlld0JveD0iMCAwIDE2IDE2Ij48ZyBmaWxsPSJub25lIiBmaWxsLXJ1bGU9ImV2ZW5vZGQiPjxwYXRoIGQ9Ik0wIDEuNzc3QzAgLjc5Ni43OTYgMCAxLjc3NyAwaDEyLjQ0NkMxNS4yMDQgMCAxNiAuNzk2IDE2IDEuNzc3djEyLjQ0NmMwIC45ODEtLjc5NiAxLjc3Ny0xLjc3NyAxLjc3N0gxLjc3N0ExLjc3OCAxLjc3OCAwIDAgMSAwIDE0LjIyM1YxLjc3N3oiIGZpbGw9IiMyNjg0RkYiLz48cGF0aCBkPSJNNy45MzMgN2g0LjEzNGMuNTE1IDAgLjkzMy40MTguOTMzLjkzM3Y0LjEzNGEuOTMzLjkzMyAwIDAgMS0uOTMzLjkzM0g3LjkzM0EuOTMzLjkzMyAwIDAgMSA3IDEyLjA2N1Y3LjkzM0M3IDcuNDE4IDcuNDE4IDcgNy45MzMgN3oiIGZpbGw9IiNGRkYiLz48cGF0aCBkPSJNNC41IDQuNXYzaDN2LTNoLTN6TTMuOTMzIDNoNC4xMzRjLjUxNSAwIC45MzMuNDE4LjkzMy45MzN2NC4xMzRBLjkzMy45MzMgMCAwIDEgOC4wNjcgOUgzLjkzM0EuOTMzLjkzMyAwIDAgMSAzIDguMDY3VjMuOTMzQzMgMy40MTggMy40MTggMyAzLjkzMyAzeiIgZmlsbD0iI0ZGRiIgZmlsbC1ydWxlPSJub256ZXJvIi8+PC9nPjwvc3ZnPg==;whiteSpace=wrap;html=1;rounded=0;glass=0;treeMoving=1;treeFolding=1;direction=east;fillColor=#fff2cc;strokeColor=#d6b656;" parent="dNxyNK7c78bLwvsdeMH5-11" vertex="1">
            <mxGeometry x="706" y="300" width="180" height="70" as="geometry" />
          </mxCell>
        </UserObject>
        <UserObject label="&lt;div style=&quot;text-align: center&quot;&gt;&lt;span&gt;%IssueType%&lt;/span&gt;&lt;/div&gt;&lt;i style=&quot;color: gray&quot;&gt;%ActionName%&lt;br&gt;&lt;/i&gt;&lt;i style=&quot;color: gray&quot;&gt;%Option%&lt;br&gt;&lt;/i&gt;" placeholders="1" IssueType="Sub-Task" ActionName="UI기획서" Option="CMS필수" id="ul-tW43uK6jAfi8oGgl1-29">
          <mxCell style="label;image=data:image/svg+xml,PHN2ZyB4bWxucz0iaHR0cDovL3d3dy53My5vcmcvMjAwMC9zdmciIHdpZHRoPSIxNiIgaGVpZ2h0PSIxNiIgdmlld0JveD0iMCAwIDE2IDE2Ij48ZyBmaWxsPSJub25lIiBmaWxsLXJ1bGU9ImV2ZW5vZGQiPjxwYXRoIGQ9Ik0wIDEuNzc3QzAgLjc5Ni43OTYgMCAxLjc3NyAwaDEyLjQ0NkMxNS4yMDQgMCAxNiAuNzk2IDE2IDEuNzc3djEyLjQ0NmMwIC45ODEtLjc5NiAxLjc3Ny0xLjc3NyAxLjc3N0gxLjc3N0ExLjc3OCAxLjc3OCAwIDAgMSAwIDE0LjIyM1YxLjc3N3oiIGZpbGw9IiMyNjg0RkYiLz48cGF0aCBkPSJNNy45MzMgN2g0LjEzNGMuNTE1IDAgLjkzMy40MTguOTMzLjkzM3Y0LjEzNGEuOTMzLjkzMyAwIDAgMS0uOTMzLjkzM0g3LjkzM0EuOTMzLjkzMyAwIDAgMSA3IDEyLjA2N1Y3LjkzM0M3IDcuNDE4IDcuNDE4IDcgNy45MzMgN3oiIGZpbGw9IiNGRkYiLz48cGF0aCBkPSJNNC41IDQuNXYzaDN2LTNoLTN6TTMuOTMzIDNoNC4xMzRjLjUxNSAwIC45MzMuNDE4LjkzMy45MzN2NC4xMzRBLjkzMy45MzMgMCAwIDEgOC4wNjcgOUgzLjkzM0EuOTMzLjkzMyAwIDAgMSAzIDguMDY3VjMuOTMzQzMgMy40MTggMy40MTggMyAzLjkzMyAzeiIgZmlsbD0iI0ZGRiIgZmlsbC1ydWxlPSJub256ZXJvIi8+PC9nPjwvc3ZnPg==;whiteSpace=wrap;html=1;rounded=0;glass=0;treeMoving=1;treeFolding=1;direction=east;fillColor=#fff2cc;strokeColor=#d6b656;" parent="dNxyNK7c78bLwvsdeMH5-11" vertex="1">
            <mxGeometry x="696" y="290" width="180" height="70" as="geometry" />
          </mxCell>
        </UserObject>
        <UserObject label="&lt;div style=&quot;text-align: center&quot;&gt;&lt;span&gt;%IssueType%&lt;/span&gt;&lt;/div&gt;&lt;i style=&quot;color: gray&quot;&gt;%ActionName%&lt;br&gt;&lt;/i&gt;&lt;i style=&quot;color: gray&quot;&gt;%Option%&lt;br&gt;&lt;/i&gt;" placeholders="1" IssueType="Sub-Task" ActionName="사용자정의작업" Option="선택" id="ul-tW43uK6jAfi8oGgl1-30">
          <mxCell style="label;image=data:image/svg+xml,PHN2ZyB4bWxucz0iaHR0cDovL3d3dy53My5vcmcvMjAwMC9zdmciIHdpZHRoPSIxNiIgaGVpZ2h0PSIxNiIgdmlld0JveD0iMCAwIDE2IDE2Ij48ZyBmaWxsPSJub25lIiBmaWxsLXJ1bGU9ImV2ZW5vZGQiPjxwYXRoIGQ9Ik0wIDEuNzc3QzAgLjc5Ni43OTYgMCAxLjc3NyAwaDEyLjQ0NkMxNS4yMDQgMCAxNiAuNzk2IDE2IDEuNzc3djEyLjQ0NmMwIC45ODEtLjc5NiAxLjc3Ny0xLjc3NyAxLjc3N0gxLjc3N0ExLjc3OCAxLjc3OCAwIDAgMSAwIDE0LjIyM1YxLjc3N3oiIGZpbGw9IiMyNjg0RkYiLz48cGF0aCBkPSJNNy45MzMgN2g0LjEzNGMuNTE1IDAgLjkzMy40MTguOTMzLjkzM3Y0LjEzNGEuOTMzLjkzMyAwIDAgMS0uOTMzLjkzM0g3LjkzM0EuOTMzLjkzMyAwIDAgMSA3IDEyLjA2N1Y3LjkzM0M3IDcuNDE4IDcuNDE4IDcgNy45MzMgN3oiIGZpbGw9IiNGRkYiLz48cGF0aCBkPSJNNC41IDQuNXYzaDN2LTNoLTN6TTMuOTMzIDNoNC4xMzRjLjUxNSAwIC45MzMuNDE4LjkzMy45MzN2NC4xMzRBLjkzMy45MzMgMCAwIDEgOC4wNjcgOUgzLjkzM0EuOTMzLjkzMyAwIDAgMSAzIDguMDY3VjMuOTMzQzMgMy40MTggMy40MTggMyAzLjkzMyAzeiIgZmlsbD0iI0ZGRiIgZmlsbC1ydWxlPSJub256ZXJvIi8+PC9nPjwvc3ZnPg==;whiteSpace=wrap;html=1;rounded=0;glass=0;treeMoving=1;treeFolding=1;direction=east;fillColor=#fff2cc;strokeColor=#d6b656;" parent="dNxyNK7c78bLwvsdeMH5-11" vertex="1">
            <mxGeometry x="680" y="280" width="180" height="70" as="geometry" />
          </mxCell>
        </UserObject>
        <mxCell id="ul-tW43uK6jAfi8oGgl1-31" style="edgeStyle=orthogonalEdgeStyle;rounded=0;orthogonalLoop=1;jettySize=auto;html=1;entryX=0;entryY=0.5;entryDx=0;entryDy=0;" parent="dNxyNK7c78bLwvsdeMH5-11" source="Jup9wt5_tqh57v724iOX-6" target="ul-tW43uK6jAfi8oGgl1-30" edge="1">
          <mxGeometry relative="1" as="geometry">
            <mxPoint x="710" y="261" as="sourcePoint" />
            <mxPoint x="512.03" y="285" as="targetPoint" />
            <Array as="points">
              <mxPoint x="650" y="315" />
            </Array>
          </mxGeometry>
        </mxCell>
      </root>
    </mxGraphModel>
  </diagram>
</mxfile>
